<?xml version="1.0" encoding="UTF-8"?>
<svg xmlns="http://www.w3.org/2000/svg" xmlns:xlink="http://www.w3.org/1999/xlink" width="394.172pt" height="69.869pt" viewBox="0 0 394.172 69.869" version="1.1">
<defs>
<clipPath id="clip1">
  <path d="M 366 0 L 394.171875 0 L 394.171875 67 L 366 67 Z M 366 0 "/>
</clipPath>
<clipPath id="clip2">
  <path d="M 26 58 L 39 58 L 39 69.867188 L 26 69.867188 Z M 26 58 "/>
</clipPath>
<clipPath id="clip3">
  <path d="M 6 38 L 58 38 L 58 69.867188 L 6 69.867188 Z M 6 38 "/>
</clipPath>
<clipPath id="clip4">
  <path d="M 18 49 L 47 49 L 47 69.867188 L 18 69.867188 Z M 18 49 "/>
</clipPath>
<clipPath id="clip5">
  <path d="M 111 58 L 124 58 L 124 69.867188 L 111 69.867188 Z M 111 58 "/>
</clipPath>
<clipPath id="clip6">
  <path d="M 91 38 L 144 38 L 144 69.867188 L 91 69.867188 Z M 91 38 "/>
</clipPath>
<clipPath id="clip7">
  <path d="M 103 49 L 132 49 L 132 69.867188 L 103 69.867188 Z M 103 49 "/>
</clipPath>
<clipPath id="clip8">
  <path d="M 196 58 L 209 58 L 209 69.867188 L 196 69.867188 Z M 196 58 "/>
</clipPath>
<clipPath id="clip9">
  <path d="M 177 38 L 229 38 L 229 69.867188 L 177 69.867188 Z M 177 38 "/>
</clipPath>
<clipPath id="clip10">
  <path d="M 188 49 L 217 49 L 217 69.867188 L 188 69.867188 Z M 188 49 "/>
</clipPath>
<clipPath id="clip11">
  <path d="M 281 58 L 294 58 L 294 69.867188 L 281 69.867188 Z M 281 58 "/>
</clipPath>
<clipPath id="clip12">
  <path d="M 262 38 L 314 38 L 314 69.867188 L 262 69.867188 Z M 262 38 "/>
</clipPath>
<clipPath id="clip13">
  <path d="M 273 49 L 302 49 L 302 69.867188 L 273 69.867188 Z M 273 49 "/>
</clipPath>
<clipPath id="clip14">
  <path d="M 366 58 L 379 58 L 379 69.867188 L 366 69.867188 Z M 366 58 "/>
</clipPath>
<clipPath id="clip15">
  <path d="M 347 38 L 394.171875 38 L 394.171875 69.867188 L 347 69.867188 Z M 347 38 "/>
</clipPath>
<clipPath id="clip16">
  <path d="M 358 49 L 387 49 L 387 69.867188 L 358 69.867188 Z M 358 49 "/>
</clipPath>
</defs>
<g id="surface1">
<path style="fill:none;stroke-width:0.59776;stroke-linecap:round;stroke-linejoin:miter;stroke:rgb(0%,0%,0%);stroke-opacity:1;stroke-miterlimit:10;" d="M -4.820375 -21.260125 L 4.82025 -21.260125 " transform="matrix(1,0,0,-1,32.461,42.818)"/>
<path style="fill:none;stroke-width:0.59776;stroke-linecap:butt;stroke-linejoin:miter;stroke:rgb(0%,0%,0%);stroke-opacity:1;stroke-miterlimit:10;" d="M -0.0000625 -21.260125 L -0.0000625 -21.260125 " transform="matrix(1,0,0,-1,32.461,42.818)"/>
<path style="fill:none;stroke-width:0.59776;stroke-linecap:round;stroke-linejoin:miter;stroke:rgb(0%,0%,0%);stroke-opacity:1;stroke-miterlimit:10;" d="M 80.222594 -21.260125 L 89.859313 -21.260125 " transform="matrix(1,0,0,-1,32.461,42.818)"/>
<path style="fill:none;stroke-width:0.59776;stroke-linecap:butt;stroke-linejoin:miter;stroke:rgb(0%,0%,0%);stroke-opacity:1;stroke-miterlimit:10;" d="M 85.039 -21.260125 L 85.039 -21.260125 " transform="matrix(1,0,0,-1,32.461,42.818)"/>
<path style="fill:none;stroke-width:0.59776;stroke-linecap:round;stroke-linejoin:miter;stroke:rgb(0%,0%,0%);stroke-opacity:1;stroke-miterlimit:10;" d="M 165.261656 -21.260125 L 174.898375 -21.260125 " transform="matrix(1,0,0,-1,32.461,42.818)"/>
<path style="fill:none;stroke-width:0.59776;stroke-linecap:butt;stroke-linejoin:miter;stroke:rgb(0%,0%,0%);stroke-opacity:1;stroke-miterlimit:10;" d="M 170.081969 -21.260125 L 340.160094 -21.260125 " transform="matrix(1,0,0,-1,32.461,42.818)"/>
<path style="fill:none;stroke-width:0.59776;stroke-linecap:round;stroke-linejoin:miter;stroke:rgb(0%,0%,0%);stroke-opacity:1;stroke-miterlimit:10;" d="M 165.261656 -21.260125 L 344.980406 -21.260125 " transform="matrix(1,0,0,-1,32.461,42.818)"/>
<path style="fill:none;stroke-width:0.59776;stroke-linecap:butt;stroke-linejoin:miter;stroke:rgb(0%,0%,0%);stroke-opacity:1;stroke-miterlimit:10;" d="M -2.0235 -15.193719 L -21.261781 42.521125 " transform="matrix(1,0,0,-1,32.461,42.818)"/>
<path style="fill:none;stroke-width:0.59776;stroke-linecap:butt;stroke-linejoin:miter;stroke:rgb(0%,0%,0%);stroke-opacity:1;stroke-miterlimit:10;" d="M 2.023375 -15.193719 L 21.261656 42.521125 " transform="matrix(1,0,0,-1,32.461,42.818)"/>
<path style="fill:none;stroke-width:0.59776;stroke-linecap:butt;stroke-linejoin:miter;stroke:rgb(0%,0%,0%);stroke-opacity:1;stroke-miterlimit:10;" d="M 83.015563 -15.193719 L 63.777281 42.521125 " transform="matrix(1,0,0,-1,32.461,42.818)"/>
<path style="fill:none;stroke-width:0.59776;stroke-linecap:butt;stroke-linejoin:miter;stroke:rgb(0%,0%,0%);stroke-opacity:1;stroke-miterlimit:10;" d="M 87.062438 -15.193719 L 106.300719 42.521125 " transform="matrix(1,0,0,-1,32.461,42.818)"/>
<path style="fill:none;stroke-width:0.59776;stroke-linecap:butt;stroke-linejoin:miter;stroke:rgb(0%,0%,0%);stroke-opacity:1;stroke-miterlimit:10;" d="M 168.054625 -15.193719 L 148.816344 42.521125 " transform="matrix(1,0,0,-1,32.461,42.818)"/>
<path style="fill:none;stroke-width:0.59776;stroke-linecap:butt;stroke-linejoin:miter;stroke:rgb(0%,0%,0%);stroke-opacity:1;stroke-miterlimit:10;" d="M 172.1015 -15.193719 L 191.339781 42.521125 " transform="matrix(1,0,0,-1,32.461,42.818)"/>
<path style="fill:none;stroke-width:0.59776;stroke-linecap:butt;stroke-linejoin:miter;stroke:rgb(0%,0%,0%);stroke-opacity:1;stroke-miterlimit:10;" d="M 257.140562 -15.193719 L 276.378844 42.521125 " transform="matrix(1,0,0,-1,32.461,42.818)"/>
<path style="fill:none;stroke-width:0.59776;stroke-linecap:butt;stroke-linejoin:miter;stroke:rgb(0%,0%,0%);stroke-opacity:1;stroke-miterlimit:10;" d="M 253.093687 -15.193719 L 233.855406 42.521125 " transform="matrix(1,0,0,-1,32.461,42.818)"/>
<g clip-path="url(#clip1)" clip-rule="nonzero">
<path style="fill:none;stroke-width:0.59776;stroke-linecap:butt;stroke-linejoin:miter;stroke:rgb(0%,0%,0%);stroke-opacity:1;stroke-miterlimit:10;" d="M 342.179625 -15.193719 L 361.417906 42.521125 " transform="matrix(1,0,0,-1,32.461,42.818)"/>
</g>
<path style="fill:none;stroke-width:0.59776;stroke-linecap:butt;stroke-linejoin:miter;stroke:rgb(0%,0%,0%);stroke-opacity:1;stroke-miterlimit:10;" d="M 338.13275 -15.193719 L 318.898375 42.521125 " transform="matrix(1,0,0,-1,32.461,42.818)"/>
<g clip-path="url(#clip2)" clip-rule="nonzero">
<path style=" stroke:none;fill-rule:nonzero;fill:rgb(0%,0%,0%);fill-opacity:1;" d="M 38.25 64.078125 C 38.25 60.878906 35.660156 58.289062 32.460938 58.289062 C 29.261719 58.289062 26.671875 60.878906 26.671875 64.078125 C 26.671875 67.277344 29.261719 69.867188 32.460938 69.867188 C 35.660156 69.867188 38.25 67.277344 38.25 64.078125 Z M 38.25 64.078125 "/>
</g>
<g clip-path="url(#clip3)" clip-rule="nonzero">
<path style="fill:none;stroke-width:1.39478;stroke-linecap:butt;stroke-linejoin:miter;stroke:rgb(0%,0%,0%);stroke-opacity:1;stroke-miterlimit:10;" d="M 5.789 -21.260125 C 5.789 -18.060906 3.199156 -15.471063 -0.0000625 -15.471063 C -3.199281 -15.471063 -5.789125 -18.060906 -5.789125 -21.260125 C -5.789125 -24.459344 -3.199281 -27.049188 -0.0000625 -27.049188 C 3.199156 -27.049188 5.789 -24.459344 5.789 -21.260125 Z M 5.789 -21.260125 " transform="matrix(1,0,0,-1,32.461,42.818)"/>
</g>
<g clip-path="url(#clip4)" clip-rule="nonzero">
<path style="fill:none;stroke-width:0.59776;stroke-linecap:butt;stroke-linejoin:miter;stroke:rgb(100%,100%,100%);stroke-opacity:1;stroke-miterlimit:10;" d="M 5.789 -21.260125 C 5.789 -18.060906 3.199156 -15.471063 -0.0000625 -15.471063 C -3.199281 -15.471063 -5.789125 -18.060906 -5.789125 -21.260125 C -5.789125 -24.459344 -3.199281 -27.049188 -0.0000625 -27.049188 C 3.199156 -27.049188 5.789 -24.459344 5.789 -21.260125 Z M 5.789 -21.260125 " transform="matrix(1,0,0,-1,32.461,42.818)"/>
</g>
<g clip-path="url(#clip5)" clip-rule="nonzero">
<path style=" stroke:none;fill-rule:nonzero;fill:rgb(0%,0%,0%);fill-opacity:1;" d="M 123.292969 64.078125 C 123.292969 60.878906 120.699219 58.289062 117.5 58.289062 C 114.304688 58.289062 111.710938 60.878906 111.710938 64.078125 C 111.710938 67.277344 114.304688 69.867188 117.5 69.867188 C 120.699219 69.867188 123.292969 67.277344 123.292969 64.078125 Z M 123.292969 64.078125 "/>
</g>
<g clip-path="url(#clip6)" clip-rule="nonzero">
<path style="fill:none;stroke-width:1.39478;stroke-linecap:butt;stroke-linejoin:miter;stroke:rgb(0%,0%,0%);stroke-opacity:1;stroke-miterlimit:10;" d="M 90.831969 -21.260125 C 90.831969 -18.060906 88.238219 -15.471063 85.039 -15.471063 C 81.843688 -15.471063 79.249938 -18.060906 79.249938 -21.260125 C 79.249938 -24.459344 81.843688 -27.049188 85.039 -27.049188 C 88.238219 -27.049188 90.831969 -24.459344 90.831969 -21.260125 Z M 90.831969 -21.260125 " transform="matrix(1,0,0,-1,32.461,42.818)"/>
</g>
<g clip-path="url(#clip7)" clip-rule="nonzero">
<path style="fill:none;stroke-width:0.59776;stroke-linecap:butt;stroke-linejoin:miter;stroke:rgb(100%,100%,100%);stroke-opacity:1;stroke-miterlimit:10;" d="M 90.831969 -21.260125 C 90.831969 -18.060906 88.238219 -15.471063 85.039 -15.471063 C 81.843688 -15.471063 79.249938 -18.060906 79.249938 -21.260125 C 79.249938 -24.459344 81.843688 -27.049188 85.039 -27.049188 C 88.238219 -27.049188 90.831969 -24.459344 90.831969 -21.260125 Z M 90.831969 -21.260125 " transform="matrix(1,0,0,-1,32.461,42.818)"/>
</g>
<g clip-path="url(#clip8)" clip-rule="nonzero">
<path style=" stroke:none;fill-rule:nonzero;fill:rgb(0%,0%,0%);fill-opacity:1;" d="M 208.332031 64.078125 C 208.332031 60.878906 205.738281 58.289062 202.542969 58.289062 C 199.34375 58.289062 196.75 60.878906 196.75 64.078125 C 196.75 67.277344 199.34375 69.867188 202.542969 69.867188 C 205.738281 69.867188 208.332031 67.277344 208.332031 64.078125 Z M 208.332031 64.078125 "/>
</g>
<g clip-path="url(#clip9)" clip-rule="nonzero">
<path style="fill:none;stroke-width:1.39478;stroke-linecap:butt;stroke-linejoin:miter;stroke:rgb(0%,0%,0%);stroke-opacity:1;stroke-miterlimit:10;" d="M 175.871031 -21.260125 C 175.871031 -18.060906 173.277281 -15.471063 170.081969 -15.471063 C 166.88275 -15.471063 164.289 -18.060906 164.289 -21.260125 C 164.289 -24.459344 166.88275 -27.049188 170.081969 -27.049188 C 173.277281 -27.049188 175.871031 -24.459344 175.871031 -21.260125 Z M 175.871031 -21.260125 " transform="matrix(1,0,0,-1,32.461,42.818)"/>
</g>
<g clip-path="url(#clip10)" clip-rule="nonzero">
<path style="fill:none;stroke-width:0.59776;stroke-linecap:butt;stroke-linejoin:miter;stroke:rgb(100%,100%,100%);stroke-opacity:1;stroke-miterlimit:10;" d="M 175.871031 -21.260125 C 175.871031 -18.060906 173.277281 -15.471063 170.081969 -15.471063 C 166.88275 -15.471063 164.289 -18.060906 164.289 -21.260125 C 164.289 -24.459344 166.88275 -27.049188 170.081969 -27.049188 C 173.277281 -27.049188 175.871031 -24.459344 175.871031 -21.260125 Z M 175.871031 -21.260125 " transform="matrix(1,0,0,-1,32.461,42.818)"/>
</g>
<g clip-path="url(#clip11)" clip-rule="nonzero">
<path style=" stroke:none;fill-rule:nonzero;fill:rgb(0%,0%,0%);fill-opacity:1;" d="M 293.375 64.078125 C 293.375 60.878906 290.78125 58.289062 287.582031 58.289062 C 284.382812 58.289062 281.792969 60.878906 281.792969 64.078125 C 281.792969 67.277344 284.382812 69.867188 287.582031 69.867188 C 290.78125 69.867188 293.375 67.277344 293.375 64.078125 Z M 293.375 64.078125 "/>
</g>
<g clip-path="url(#clip12)" clip-rule="nonzero">
<path style="fill:none;stroke-width:1.39478;stroke-linecap:butt;stroke-linejoin:miter;stroke:rgb(0%,0%,0%);stroke-opacity:1;stroke-miterlimit:10;" d="M 260.914 -21.260125 C 260.914 -18.060906 258.32025 -15.471063 255.121031 -15.471063 C 251.921812 -15.471063 249.331969 -18.060906 249.331969 -21.260125 C 249.331969 -24.459344 251.921812 -27.049188 255.121031 -27.049188 C 258.32025 -27.049188 260.914 -24.459344 260.914 -21.260125 Z M 260.914 -21.260125 " transform="matrix(1,0,0,-1,32.461,42.818)"/>
</g>
<g clip-path="url(#clip13)" clip-rule="nonzero">
<path style="fill:none;stroke-width:0.59776;stroke-linecap:butt;stroke-linejoin:miter;stroke:rgb(100%,100%,100%);stroke-opacity:1;stroke-miterlimit:10;" d="M 260.914 -21.260125 C 260.914 -18.060906 258.32025 -15.471063 255.121031 -15.471063 C 251.921812 -15.471063 249.331969 -18.060906 249.331969 -21.260125 C 249.331969 -24.459344 251.921812 -27.049188 255.121031 -27.049188 C 258.32025 -27.049188 260.914 -24.459344 260.914 -21.260125 Z M 260.914 -21.260125 " transform="matrix(1,0,0,-1,32.461,42.818)"/>
</g>
<g clip-path="url(#clip14)" clip-rule="nonzero">
<path style=" stroke:none;fill-rule:nonzero;fill:rgb(0%,0%,0%);fill-opacity:1;" d="M 378.414062 64.078125 C 378.414062 60.878906 375.820312 58.289062 372.621094 58.289062 C 369.425781 58.289062 366.832031 60.878906 366.832031 64.078125 C 366.832031 67.277344 369.425781 69.867188 372.621094 69.867188 C 375.820312 69.867188 378.414062 67.277344 378.414062 64.078125 Z M 378.414062 64.078125 "/>
</g>
<g clip-path="url(#clip15)" clip-rule="nonzero">
<path style="fill:none;stroke-width:1.39478;stroke-linecap:butt;stroke-linejoin:miter;stroke:rgb(0%,0%,0%);stroke-opacity:1;stroke-miterlimit:10;" d="M 345.953062 -21.260125 C 345.953062 -18.060906 343.359312 -15.471063 340.160094 -15.471063 C 336.964781 -15.471063 334.371031 -18.060906 334.371031 -21.260125 C 334.371031 -24.459344 336.964781 -27.049188 340.160094 -27.049188 C 343.359312 -27.049188 345.953062 -24.459344 345.953062 -21.260125 Z M 345.953062 -21.260125 " transform="matrix(1,0,0,-1,32.461,42.818)"/>
</g>
<g clip-path="url(#clip16)" clip-rule="nonzero">
<path style="fill:none;stroke-width:0.59776;stroke-linecap:butt;stroke-linejoin:miter;stroke:rgb(100%,100%,100%);stroke-opacity:1;stroke-miterlimit:10;" d="M 345.953062 -21.260125 C 345.953062 -18.060906 343.359312 -15.471063 340.160094 -15.471063 C 336.964781 -15.471063 334.371031 -18.060906 334.371031 -21.260125 C 334.371031 -24.459344 336.964781 -27.049188 340.160094 -27.049188 C 343.359312 -27.049188 345.953062 -24.459344 345.953062 -21.260125 Z M 345.953062 -21.260125 " transform="matrix(1,0,0,-1,32.461,42.818)"/>
</g>
</g>
</svg>
